<?xml version="1.0" encoding="UTF-8" standalone="no"?>
<!-- Generator: Adobe Illustrator 16.0.0, SVG Export Plug-In . SVG Version: 6.00 Build 0)  -->

<svg
   xmlns:dc="http://purl.org/dc/elements/1.1/"
   xmlns:cc="http://creativecommons.org/ns#"
   xmlns:rdf="http://www.w3.org/1999/02/22-rdf-syntax-ns#"
   xmlns:svg="http://www.w3.org/2000/svg"
   xmlns="http://www.w3.org/2000/svg"
   xmlns:xlink="http://www.w3.org/1999/xlink"
   xmlns:sodipodi="http://sodipodi.sourceforge.net/DTD/sodipodi-0.dtd"
   xmlns:inkscape="http://www.inkscape.org/namespaces/inkscape"
   version="1.1"
   id="Layer_1"
   x="0px"
   y="0px"
   width="196"
   height="196"
   viewBox="0 0 196 196"
   enable-background="new 0 0 126 126"
   xml:space="preserve"
   inkscape:version="0.48.4 r9939"
   sodipodi:docname="icon.svg"
   inkscape:export-filename="/home/camolin3/code/tweetsaster/app/images/icon-196x196.png"
   inkscape:export-xdpi="90"
   inkscape:export-ydpi="90"><metadata
     id="metadata17"><rdf:RDF><cc:Work
         rdf:about=""><dc:format>image/svg+xml</dc:format><dc:type
           rdf:resource="http://purl.org/dc/dcmitype/StillImage" /><dc:title></dc:title></cc:Work></rdf:RDF></metadata><defs
     id="defs15"><linearGradient
       id="linearGradient3824"><stop
         style="stop-color:#5476e8;stop-opacity:1;"
         offset="0"
         id="stop3826" /><stop
         style="stop-color:#7894ef;stop-opacity:1;"
         offset="1"
         id="stop3828" /></linearGradient><linearGradient
       inkscape:collect="always"
       xlink:href="#linearGradient3824"
       id="linearGradient3830"
       x1="16.550848"
       y1="92.423727"
       x2="170.84746"
       y2="92.423727"
       gradientUnits="userSpaceOnUse"
       gradientTransform="matrix(1.2702806,0,0,1.4229113,-217.02422,-33.51077)" /></defs><sodipodi:namedview
     pagecolor="#ffffff"
     bordercolor="#666666"
     borderopacity="1"
     objecttolerance="10"
     gridtolerance="10"
     guidetolerance="10"
     inkscape:pageopacity="0"
     inkscape:pageshadow="2"
     inkscape:window-width="1600"
     inkscape:window-height="876"
     id="namedview13"
     showgrid="false"
     inkscape:zoom="0.6622111"
     inkscape:cx="-108.132"
     inkscape:cy="-21.681279"
     inkscape:window-x="0"
     inkscape:window-y="24"
     inkscape:window-maximized="1"
     inkscape:current-layer="layer2" /><g
     inkscape:groupmode="layer"
     id="layer1"
     inkscape:label="bg"
     style="display:inline"><rect
       style="fill:url(#linearGradient3830);fill-opacity:1;stroke:none"
       id="rect3054"
       width="196"
       height="196"
       x="-196"
       y="0"
       transform="matrix(0,-1,1,0,0,0)" /></g><g
     inkscape:groupmode="layer"
     id="layer2"
     inkscape:label="icon"
     style="display:inline"><g
       id="g3"
       transform="matrix(1.1250623,0,0,1.1250623,-12.256105,67.967977)"
       style="fill:#ffffff"><g
         id="g3013"
         transform="translate(34.999425,-35.00041)"
         style="fill:#ffffff"><rect
           style="fill:#ffffff"
           id="rect5"
           height="9.4460001"
           width="124.019"
           y="106.306"
           x="1.2180001" /><path
           style="fill:#ffffff"
           id="path7"
           d="m 13.776,66.306 6.589,-4.713 -6.936,41.768 h 26.627 l -14.852,-2.467 8.059,-48.527 11.068,-7.914 -3.333,-2.917 -1.502,-1.313 0.628,-1.365 3.135,-6.815 -2.075,-6.019 -37.193,26.599 c -3.776,2.701 -4.649,7.955 -1.948,11.733 2.701,3.776 7.956,4.65 11.733,1.95 z"
           inkscape:connector-curvature="0" /><path
           style="fill:#ffffff"
           id="path9"
           d="m 51.115,32.938 -0.293,0.708 -2.278,5.501 3.876,3.135 25.724,-12.395 20.995,43.57 -10.401,29.749 h 11.877 l 5.408,-15.466 3.517,7.3 c 1.009,2.089 2.769,3.575 4.801,4.286 2.03,0.71 4.334,0.645 6.426,-0.361 4.183,-2.017 5.94,-7.043 3.926,-11.227 L 89.647,15.008 C 88.68,13 86.952,11.456 84.847,10.719 82.742,9.984 80.43,10.115 78.42,11.082 l -30.15,14.528 2.684,6.911 0.161,0.417 z"
           inkscape:connector-curvature="0" /><polygon
           style="fill:#ffffff"
           id="polygon11"
           points="49.976,86.113 47.521,91.677 42.389,103.306 57.667,103.306 58.485,99.882 62.549,99.841 67.863,99.788 68.016,95.561 68.672,77.287 73.243,83.088 77.426,88.394 77.007,81.917 74.943,50.054 73.316,75.174 68.436,66.999 64.22,59.935 62.801,68.444 59.382,88.949 54.392,87.444 " /></g></g></g></svg>